<svg width="20" height="20" viewBox="0 0 20 20" fill="none" xmlns="http://www.w3.org/2000/svg">
<path fill-rule="evenodd" clip-rule="evenodd" d="M10 3C8.09833 3 7.8615 3.00817 7.11367 3.04317C4.57033 3.15983 3.15867 4.57033 3.042 7.11367C3.00817 7.8615 3 8.0995 3 10C3 11.9017 3.00817 12.1397 3.042 12.8863C3.15867 15.4285 4.57033 16.8413 7.11367 16.958C7.8615 16.9918 8.09833 17 10 17C11.9017 17 12.1397 16.9918 12.8875 16.958C15.4262 16.8413 16.8437 15.4308 16.958 12.8863C16.9918 12.1397 17 11.9017 17 10C17 8.0995 16.9918 7.8615 16.958 7.11367C16.8437 4.57383 15.4308 3.15867 12.8875 3.04317C12.1397 3.00817 11.9017 3 10 3ZM10.0003 4.26237C11.8693 4.26237 12.091 4.26937 12.8295 4.3032C14.7276 4.38954 15.612 5.28904 15.6995 7.17204C15.7321 7.91054 15.7391 8.13104 15.7391 10C15.7391 11.869 15.7321 12.0907 15.6995 12.828C15.612 14.7099 14.7288 15.6117 12.8295 15.698C12.091 15.7307 11.8705 15.7389 10.0003 15.7389C8.13129 15.7389 7.90962 15.7319 7.17229 15.698C5.27062 15.6105 4.38979 14.7075 4.30229 12.828C4.26962 12.0907 4.26146 11.869 4.26146 10C4.26146 8.13104 4.26962 7.90937 4.30229 7.17204C4.38862 5.28787 5.27296 4.38837 7.17229 4.30204C7.90962 4.2682 8.13129 4.26237 10.0003 4.26237ZM6.40521 9.99971C6.40521 8.01404 8.01521 6.40521 9.99971 6.40521C11.9842 6.40521 13.5942 8.01521 13.5942 9.99971C13.5942 11.9854 11.9842 13.5942 9.99971 13.5942C8.01521 13.5942 6.40521 11.9854 6.40521 9.99971ZM10 12.3333C8.71083 12.3333 7.66667 11.2892 7.66667 10C7.66667 8.712 8.71083 7.66667 10 7.66667C11.288 7.66667 12.3345 8.71083 12.3345 10C12.3345 11.2892 11.288 12.3333 10 12.3333ZM12.8948 6.26448C12.8948 5.80015 13.2716 5.42448 13.7348 5.42448C14.2003 5.42448 14.576 5.80015 14.576 6.26448C14.576 6.72881 14.1991 7.10448 13.7348 7.10448C13.2705 7.10448 12.8948 6.72765 12.8948 6.26448Z" fill="white"/>
</svg>
