<svg width="20" height="20" viewBox="0 0 20 20" fill="none" xmlns="http://www.w3.org/2000/svg">
<path d="M18.3799 5.48031C17.8147 5.73152 17.2059 5.9007 16.5676 5.9776C17.22 5.58669 17.7185 4.96893 17.9557 4.23198C17.3456 4.59341 16.6702 4.85615 15.9511 4.99713C15.377 4.38322 14.5554 4 13.6493 4C11.6115 4 10.1145 5.9007 10.5746 7.87445C7.9536 7.74244 5.6274 6.48641 4.07147 4.57803C3.2448 5.99554 3.64339 7.85138 5.04809 8.79083C4.53158 8.77417 4.04583 8.63191 3.62032 8.39608C3.58572 9.85717 4.63411 11.2247 6.15159 11.5297C5.70814 11.6502 5.22111 11.6784 4.72639 11.5836C5.12755 12.837 6.29514 13.7483 7.6742 13.7739C6.34512 14.8146 4.67513 15.2799 3 15.0825C4.39701 15.9784 6.05419 16.5 7.83569 16.5C13.6954 16.5 17.0047 11.5515 16.8047 7.11314C17.4225 6.66969 17.9569 6.11345 18.3799 5.48031V5.48031Z" fill="white"/>
</svg>
